<mxfile host="Electron" agent="Mozilla/5.0 (Windows NT 10.0; Win64; x64) AppleWebKit/537.36 (KHTML, like Gecko) draw.io/28.0.6 Chrome/138.0.7204.100 Electron/37.2.3 Safari/537.36" version="28.0.6">
  <diagram name="Page-1" id="qZxzhMulSEBzQ1if6oQA">
    <mxGraphModel dx="1426" dy="841" grid="1" gridSize="10" guides="1" tooltips="1" connect="1" arrows="1" fold="1" page="1" pageScale="1" pageWidth="827" pageHeight="1169" math="0" shadow="0">
      <root>
        <mxCell id="0" />
        <mxCell id="1" parent="0" />
        <mxCell id="FV5q8gwf3VZOL_d_fXch-30" value="" style="rounded=0;whiteSpace=wrap;html=1;strokeColor=none;" vertex="1" parent="1">
          <mxGeometry x="20" y="30" width="1010" height="540" as="geometry" />
        </mxCell>
        <mxCell id="LrJYXOmnp9yLSW-GmhSY-4" style="edgeStyle=orthogonalEdgeStyle;rounded=0;orthogonalLoop=1;jettySize=auto;html=1;exitX=0.5;exitY=0;exitDx=0;exitDy=0;entryX=0.5;entryY=1;entryDx=0;entryDy=0;" parent="1" source="LrJYXOmnp9yLSW-GmhSY-1" target="LrJYXOmnp9yLSW-GmhSY-2" edge="1">
          <mxGeometry relative="1" as="geometry" />
        </mxCell>
        <mxCell id="FV5q8gwf3VZOL_d_fXch-13" style="edgeStyle=orthogonalEdgeStyle;rounded=0;orthogonalLoop=1;jettySize=auto;html=1;exitX=1;exitY=0.5;exitDx=0;exitDy=0;entryX=0;entryY=0.5;entryDx=0;entryDy=0;" edge="1" parent="1" source="LrJYXOmnp9yLSW-GmhSY-1" target="LrJYXOmnp9yLSW-GmhSY-9">
          <mxGeometry relative="1" as="geometry" />
        </mxCell>
        <mxCell id="LrJYXOmnp9yLSW-GmhSY-1" value="AR Session" style="html=1;whiteSpace=wrap;verticalAlign=top;fontSize=18;fontStyle=1;fillColor=#d5e8d4;strokeColor=#82b366;" parent="1" vertex="1">
          <mxGeometry x="500" y="190" width="180" height="140" as="geometry" />
        </mxCell>
        <mxCell id="LrJYXOmnp9yLSW-GmhSY-6" style="edgeStyle=orthogonalEdgeStyle;rounded=0;orthogonalLoop=1;jettySize=auto;html=1;exitX=1;exitY=0.5;exitDx=0;exitDy=0;entryX=0;entryY=0.5;entryDx=0;entryDy=0;" parent="1" source="LrJYXOmnp9yLSW-GmhSY-2" target="LrJYXOmnp9yLSW-GmhSY-5" edge="1">
          <mxGeometry relative="1" as="geometry" />
        </mxCell>
        <mxCell id="FV5q8gwf3VZOL_d_fXch-4" style="edgeStyle=orthogonalEdgeStyle;rounded=0;orthogonalLoop=1;jettySize=auto;html=1;entryX=1;entryY=0.5;entryDx=0;entryDy=0;" edge="1" parent="1" source="LrJYXOmnp9yLSW-GmhSY-2" target="FV5q8gwf3VZOL_d_fXch-1">
          <mxGeometry relative="1" as="geometry" />
        </mxCell>
        <mxCell id="LrJYXOmnp9yLSW-GmhSY-2" value="XR Origin" style="html=1;whiteSpace=wrap;verticalAlign=top;fontSize=18;fontStyle=1;fillColor=#d5e8d4;strokeColor=#82b366;" parent="1" vertex="1">
          <mxGeometry x="500" y="70" width="180" height="70" as="geometry" />
        </mxCell>
        <mxCell id="LrJYXOmnp9yLSW-GmhSY-3" value="Main Scene" style="shape=umlFrame;whiteSpace=wrap;html=1;pointerEvents=0;" parent="1" vertex="1">
          <mxGeometry x="220" y="40" width="800" height="520" as="geometry" />
        </mxCell>
        <mxCell id="LrJYXOmnp9yLSW-GmhSY-5" value="Main Camera" style="html=1;whiteSpace=wrap;fontSize=18;fillColor=#d5e8d4;strokeColor=#82b366;" parent="1" vertex="1">
          <mxGeometry x="740" y="80" width="140" height="50" as="geometry" />
        </mxCell>
        <mxCell id="FV5q8gwf3VZOL_d_fXch-15" style="edgeStyle=orthogonalEdgeStyle;rounded=0;orthogonalLoop=1;jettySize=auto;html=1;exitX=0.5;exitY=1;exitDx=0;exitDy=0;entryX=0.5;entryY=0;entryDx=0;entryDy=0;" edge="1" parent="1" source="LrJYXOmnp9yLSW-GmhSY-9" target="FV5q8gwf3VZOL_d_fXch-14">
          <mxGeometry relative="1" as="geometry" />
        </mxCell>
        <mxCell id="LrJYXOmnp9yLSW-GmhSY-9" value="User Anchor" style="html=1;whiteSpace=wrap;verticalAlign=top;fontSize=18;fontStyle=1;fillColor=#d5e8d4;strokeColor=#82b366;" parent="1" vertex="1">
          <mxGeometry x="740" y="217.5" width="170" height="85" as="geometry" />
        </mxCell>
        <mxCell id="FV5q8gwf3VZOL_d_fXch-6" style="edgeStyle=orthogonalEdgeStyle;rounded=0;orthogonalLoop=1;jettySize=auto;html=1;entryX=1;entryY=0.5;entryDx=0;entryDy=0;" edge="1" parent="1" source="LrJYXOmnp9yLSW-GmhSY-27" target="FV5q8gwf3VZOL_d_fXch-5">
          <mxGeometry relative="1" as="geometry" />
        </mxCell>
        <mxCell id="LrJYXOmnp9yLSW-GmhSY-27" value="Tracking Manager" style="label;fontStyle=0;strokeColor=none;fillColor=none;align=left;verticalAlign=top;overflow=hidden;spacingLeft=28;spacingRight=4;rotatable=0;points=[[0,0.5],[1,0.5]];portConstraint=eastwest;imageWidth=16;imageHeight=16;whiteSpace=wrap;html=1;image=img/clipart/Gear_128x128.png;fontSize=16;" parent="1" vertex="1">
          <mxGeometry x="500" y="218" width="170" height="26" as="geometry" />
        </mxCell>
        <mxCell id="LrJYXOmnp9yLSW-GmhSY-28" value="Plane Manager" style="label;fontStyle=0;strokeColor=none;fillColor=none;align=left;verticalAlign=top;overflow=hidden;spacingLeft=28;spacingRight=4;rotatable=0;points=[[0,0.5],[1,0.5]];portConstraint=eastwest;imageWidth=16;imageHeight=16;whiteSpace=wrap;html=1;image=img/clipart/Gear_128x128.png;fontSize=16;" parent="1" vertex="1">
          <mxGeometry x="500" y="244" width="170" height="26" as="geometry" />
        </mxCell>
        <mxCell id="LrJYXOmnp9yLSW-GmhSY-29" value="Anchor Manager" style="label;fontStyle=0;strokeColor=none;fillColor=none;align=left;verticalAlign=top;overflow=hidden;spacingLeft=28;spacingRight=4;rotatable=0;points=[[0,0.5],[1,0.5]];portConstraint=eastwest;imageWidth=16;imageHeight=16;whiteSpace=wrap;html=1;image=img/clipart/Gear_128x128.png;fontSize=16;" parent="1" vertex="1">
          <mxGeometry x="500" y="270" width="170" height="26" as="geometry" />
        </mxCell>
        <mxCell id="LrJYXOmnp9yLSW-GmhSY-30" value="AR Raycast Manager" style="label;fontStyle=0;strokeColor=none;fillColor=none;align=left;verticalAlign=top;overflow=hidden;spacingLeft=28;spacingRight=4;rotatable=0;points=[[0,0.5],[1,0.5]];portConstraint=eastwest;imageWidth=16;imageHeight=16;whiteSpace=wrap;html=1;image=img/clipart/Gear_128x128.png;fontSize=16;" parent="1" vertex="1">
          <mxGeometry x="500" y="296" width="170" height="26" as="geometry" />
        </mxCell>
        <mxCell id="LrJYXOmnp9yLSW-GmhSY-31" value="AR Input Manager" style="label;fontStyle=0;strokeColor=none;fillColor=none;align=left;verticalAlign=top;overflow=hidden;spacingLeft=28;spacingRight=4;rotatable=0;points=[[0,0.5],[1,0.5]];portConstraint=eastwest;imageWidth=16;imageHeight=16;whiteSpace=wrap;html=1;image=img/clipart/Gear_128x128.png;fontSize=16;" parent="1" vertex="1">
          <mxGeometry x="500" y="100" width="180" height="26" as="geometry" />
        </mxCell>
        <mxCell id="FV5q8gwf3VZOL_d_fXch-1" value="Input System" style="html=1;dropTarget=0;whiteSpace=wrap;fontSize=18;fillColor=#fff2cc;strokeColor=#d6b656;" vertex="1" parent="1">
          <mxGeometry x="30" y="80" width="170" height="50" as="geometry" />
        </mxCell>
        <mxCell id="FV5q8gwf3VZOL_d_fXch-2" value="" style="shape=module;jettyWidth=8;jettyHeight=4;" vertex="1" parent="FV5q8gwf3VZOL_d_fXch-1">
          <mxGeometry x="1" width="20" height="20" relative="1" as="geometry">
            <mxPoint x="-27" y="7" as="offset" />
          </mxGeometry>
        </mxCell>
        <mxCell id="FV5q8gwf3VZOL_d_fXch-22" style="edgeStyle=orthogonalEdgeStyle;rounded=0;orthogonalLoop=1;jettySize=auto;html=1;exitX=0.5;exitY=1;exitDx=0;exitDy=0;entryX=0.5;entryY=0;entryDx=0;entryDy=0;" edge="1" parent="1" source="FV5q8gwf3VZOL_d_fXch-5" target="FV5q8gwf3VZOL_d_fXch-20">
          <mxGeometry relative="1" as="geometry" />
        </mxCell>
        <mxCell id="FV5q8gwf3VZOL_d_fXch-23" style="edgeStyle=orthogonalEdgeStyle;rounded=0;orthogonalLoop=1;jettySize=auto;html=1;exitX=0.5;exitY=1;exitDx=0;exitDy=0;entryX=0.5;entryY=0;entryDx=0;entryDy=0;" edge="1" parent="1" source="FV5q8gwf3VZOL_d_fXch-5" target="FV5q8gwf3VZOL_d_fXch-21">
          <mxGeometry relative="1" as="geometry" />
        </mxCell>
        <mxCell id="FV5q8gwf3VZOL_d_fXch-5" value="Tracked Objects" style="ellipse;whiteSpace=wrap;html=1;aspect=fixed;fontSize=18;" vertex="1" parent="1">
          <mxGeometry x="310" y="191" width="80" height="80" as="geometry" />
        </mxCell>
        <mxCell id="FV5q8gwf3VZOL_d_fXch-11" value="Session Manager" style="label;fontStyle=0;strokeColor=none;fillColor=none;align=left;verticalAlign=top;overflow=hidden;spacingLeft=28;spacingRight=4;rotatable=0;points=[[0,0.5],[1,0.5]];portConstraint=eastwest;imageWidth=16;imageHeight=16;whiteSpace=wrap;html=1;image=img/clipart/Gear_128x128.png;fontSize=16;" vertex="1" parent="1">
          <mxGeometry x="740" y="247" width="170" height="26" as="geometry" />
        </mxCell>
        <mxCell id="FV5q8gwf3VZOL_d_fXch-27" style="edgeStyle=orthogonalEdgeStyle;rounded=0;orthogonalLoop=1;jettySize=auto;html=1;exitX=0.5;exitY=1;exitDx=0;exitDy=0;entryX=0.5;entryY=0;entryDx=0;entryDy=0;" edge="1" parent="1" source="FV5q8gwf3VZOL_d_fXch-14" target="FV5q8gwf3VZOL_d_fXch-24">
          <mxGeometry relative="1" as="geometry" />
        </mxCell>
        <mxCell id="FV5q8gwf3VZOL_d_fXch-28" style="edgeStyle=orthogonalEdgeStyle;rounded=0;orthogonalLoop=1;jettySize=auto;html=1;exitX=0.5;exitY=1;exitDx=0;exitDy=0;entryX=0.5;entryY=0;entryDx=0;entryDy=0;" edge="1" parent="1" source="FV5q8gwf3VZOL_d_fXch-14" target="FV5q8gwf3VZOL_d_fXch-25">
          <mxGeometry relative="1" as="geometry" />
        </mxCell>
        <mxCell id="FV5q8gwf3VZOL_d_fXch-29" style="edgeStyle=orthogonalEdgeStyle;rounded=0;orthogonalLoop=1;jettySize=auto;html=1;exitX=0.5;exitY=1;exitDx=0;exitDy=0;entryX=0.5;entryY=0;entryDx=0;entryDy=0;" edge="1" parent="1" source="FV5q8gwf3VZOL_d_fXch-14" target="FV5q8gwf3VZOL_d_fXch-26">
          <mxGeometry relative="1" as="geometry" />
        </mxCell>
        <mxCell id="FV5q8gwf3VZOL_d_fXch-14" value="Network Objects" style="ellipse;whiteSpace=wrap;html=1;aspect=fixed;fontSize=18;" vertex="1" parent="1">
          <mxGeometry x="785" y="345" width="80" height="80" as="geometry" />
        </mxCell>
        <mxCell id="FV5q8gwf3VZOL_d_fXch-20" value="Workspace Plane" style="rounded=0;whiteSpace=wrap;html=1;fontSize=18;fillColor=#d5e8d4;strokeColor=#82b366;" vertex="1" parent="1">
          <mxGeometry x="230" y="330" width="110" height="60" as="geometry" />
        </mxCell>
        <mxCell id="FV5q8gwf3VZOL_d_fXch-21" value="Feature Anchors" style="rounded=0;whiteSpace=wrap;html=1;fontSize=18;fillColor=#d5e8d4;strokeColor=#82b366;" vertex="1" parent="1">
          <mxGeometry x="370" y="330" width="110" height="60" as="geometry" />
        </mxCell>
        <mxCell id="FV5q8gwf3VZOL_d_fXch-24" value="Local Anchors" style="rounded=0;whiteSpace=wrap;html=1;fontSize=18;fillColor=#d5e8d4;strokeColor=#82b366;" vertex="1" parent="1">
          <mxGeometry x="630" y="480" width="110" height="60" as="geometry" />
        </mxCell>
        <mxCell id="FV5q8gwf3VZOL_d_fXch-25" value="Play Models" style="rounded=0;whiteSpace=wrap;html=1;fontSize=18;fillColor=#d5e8d4;strokeColor=#82b366;" vertex="1" parent="1">
          <mxGeometry x="770" y="480" width="110" height="60" as="geometry" />
        </mxCell>
        <mxCell id="FV5q8gwf3VZOL_d_fXch-26" value="Annotations" style="rounded=0;whiteSpace=wrap;html=1;fontSize=18;fillColor=#d5e8d4;strokeColor=#82b366;" vertex="1" parent="1">
          <mxGeometry x="900" y="480" width="110" height="60" as="geometry" />
        </mxCell>
      </root>
    </mxGraphModel>
  </diagram>
</mxfile>
